<?xml version="1.0" encoding="utf-8"?>
<!-- Generator: Adobe Illustrator 16.0.0, SVG Export Plug-In . SVG Version: 6.00 Build 0)  -->
<!DOCTYPE svg PUBLIC "-//W3C//DTD SVG 1.1//EN" "http://www.w3.org/Graphics/SVG/1.1/DTD/svg11.dtd">
<svg version="1.1" id="图层_1" xmlns="http://www.w3.org/2000/svg" xmlns:xlink="http://www.w3.org/1999/xlink" x="0px" y="0px"
	 width="27.484px" height="27.483px" viewBox="0 0 27.484 27.483" enable-background="new 0 0 27.484 27.483" xml:space="preserve">
<g>
	<g>
		<path fill="#FFFFFF" d="M26.984,21.984c0,2.75-2.25,5-5,5H5.5c-2.75,0-5-2.25-5-5V5.5c0-2.75,2.25-5,5-5h16.484c2.75,0,5,2.25,5,5
			V21.984z"/>
		<path fill="none" stroke="#4182BB" stroke-miterlimit="10" d="M26.984,21.984c0,2.75-2.25,5-5,5H5.5c-2.75,0-5-2.25-5-5V5.5
			c0-2.75,2.25-5,5-5h16.484c2.75,0,5,2.25,5,5V21.984z"/>
	</g>
</g>
<path fill="#2C75AB" d="M21.646,6.509c-0.318-0.315-0.833-0.313-1.148,0.003l-9.03,9.049c-0.315,0.316-0.833,0.316-1.145,0
	l-3.297-3.284c-0.316-0.32-0.835-0.32-1.148,0l-2.029,2.026c-0.313,0.316-0.315,0.835-0.002,1.152l5.156,5.182
	c0.316,0.314,0.939,0.572,1.384,0.572h0.948c0.446,0,1.068-0.258,1.384-0.572L23.67,9.658c0.313-0.316,0.313-0.829-0.005-1.146
	L21.646,6.509z"/>
</svg>
